# xmcd
#
# Track frame offsets: 
#        150
#        21246
#        42172
#        59122
#        76335
#        90186
#        106410
#        124814
#        144874
#        160964
#        184107
#
# Disc length: 2673 seconds
#
# Revision: 0
# Processed by: cddbd v1.5.2PL0 Copyright (c) Steve Scherf et al.
# Submitted via: ExactAudioCopy v0.95b3
#
DISCID=8a0a6f0b
DTITLE=Reba McEntire - Duets
DYEAR=2007
DGENRE=Country
TTITLE0=When You Love Someone Like That (with Leann Rimes)
TTITLE1=Does The Wind Still Blow in Oklahoma (with Ronnie Dunn)
TTITLE2=Because Of You (with Kelly Clarkson)
TTITLE3=Faith In Love (with Rascal Flatts)
TTITLE4=She Can't Save Him (with Trisha Yearwood)
TTITLE5=Everyday People (with Carol King)
TTITLE6=Every Other Weekend (Kenny Chesney)
TTITLE7=These Broken Hearts (with Vonce Gill)
TTITLE8=Sleeping With The Telephone (with Faith Hill)
TTITLE9=The Only Promise That Remains (with Justin Timberlake)
TTITLE10=Break Each Others Hearts Again (with Don Henley)
EXTD=
EXTT0=
EXTT1=
EXTT2=
EXTT3=
EXTT4=
EXTT5=
EXTT6=
EXTT7=
EXTT8=
EXTT9=
EXTT10=
PLAYORDER=
